<svg width="493" height="329" viewBox="0 0 493 329" fill="none" xmlns="http://www.w3.org/2000/svg">
<rect width="493" height="1" rx="0.5" transform="matrix(1 0 0 -1 0 25)" fill="#EEEEEE"/>
<rect width="493" height="1" rx="0.5" transform="matrix(1 0 0 -1 0 79)" fill="#EEEEEE"/>
<rect width="493" height="1" rx="0.5" transform="matrix(1 0 0 -1 0 132)" fill="#EEEEEE"/>
<rect width="493" height="1" rx="0.5" transform="matrix(1 0 0 -1 0 185)" fill="#EEEEEE"/>
<rect width="493" height="1" rx="0.5" transform="matrix(1 0 0 -1 0 239)" fill="#EEEEEE"/>
<rect width="493" height="1" rx="0.5" transform="matrix(1 0 0 -1 0 293)" fill="#7B7B7B"/>
<path d="M5.152 7.344C5.984 7.49333 6.65067 7.872 7.152 8.48C7.664 9.088 7.92 9.81333 7.92 10.656C7.92 11.68 7.568 12.528 6.864 13.2C6.17067 13.8613 5.30133 14.192 4.256 14.192C3.24267 14.192 2.4 13.8773 1.728 13.248C1.06667 12.608 0.714667 11.7867 0.672 10.784H2.4C2.432 11.3173 2.61867 11.7493 2.96 12.08C3.30133 12.4 3.73333 12.56 4.256 12.56C4.81067 12.56 5.26933 12.3787 5.632 12.016C5.99467 11.6427 6.176 11.1733 6.176 10.608C6.176 10.3307 6.12267 10.0747 6.016 9.84C5.90933 9.59467 5.76533 9.38667 5.584 9.216C5.40267 9.04533 5.184 8.91733 4.928 8.832C4.672 8.736 4.39467 8.688 4.096 8.688H2.752V8.352L4.96 4.928H0.992V3.36H7.504V3.712L5.152 7.344ZM13.8559 14.192C12.5652 14.192 11.5412 13.696 10.7839 12.704C10.0265 11.712 9.64787 10.368 9.64787 8.672C9.64787 6.976 10.0212 5.63733 10.7679 4.656C11.5252 3.664 12.5545 3.168 13.8559 3.168C15.1465 3.168 16.1652 3.664 16.9119 4.656C17.6692 5.63733 18.0479 6.976 18.0479 8.672C18.0479 10.368 17.6692 11.712 16.9119 12.704C16.1545 13.696 15.1359 14.192 13.8559 14.192ZM13.8559 12.56C14.6239 12.56 15.2212 12.2187 15.6479 11.536C16.0852 10.8533 16.3039 9.89867 16.3039 8.672C16.3039 7.86133 16.2025 7.168 15.9999 6.592C15.8079 6.00533 15.5252 5.56267 15.1519 5.264C14.7892 4.95467 14.3572 4.8 13.8559 4.8C13.3439 4.8 12.9012 4.95467 12.5279 5.264C12.1545 5.56267 11.8719 6.00533 11.6799 6.592C11.4879 7.168 11.3919 7.86133 11.3919 8.672C11.3919 9.89867 11.6052 10.8533 12.0319 11.536C12.4692 12.2187 13.0772 12.56 13.8559 12.56ZM24.0471 14.192C22.7565 14.192 21.7325 13.696 20.9751 12.704C20.2178 11.712 19.8391 10.368 19.8391 8.672C19.8391 6.976 20.2125 5.63733 20.9591 4.656C21.7165 3.664 22.7458 3.168 24.0471 3.168C25.3378 3.168 26.3565 3.664 27.1031 4.656C27.8605 5.63733 28.2391 6.976 28.2391 8.672C28.2391 10.368 27.8605 11.712 27.1031 12.704C26.3458 13.696 25.3271 14.192 24.0471 14.192ZM24.0471 12.56C24.8151 12.56 25.4125 12.2187 25.8391 11.536C26.2765 10.8533 26.4951 9.89867 26.4951 8.672C26.4951 7.86133 26.3938 7.168 26.1911 6.592C25.9991 6.00533 25.7165 5.56267 25.3431 5.264C24.9805 4.95467 24.5485 4.8 24.0471 4.8C23.5351 4.8 23.0925 4.95467 22.7191 5.264C22.3458 5.56267 22.0631 6.00533 21.8711 6.592C21.6791 7.168 21.5831 7.86133 21.5831 8.672C21.5831 9.89867 21.7965 10.8533 22.2231 11.536C22.6605 12.2187 23.2685 12.56 24.0471 12.56Z" fill="#7B7B7B"/>
<path d="M31.5793 312.36H35.1633V323H33.4513V313.912H31.5793V312.36ZM45.0477 319.32V320.84H44.0237V323H42.3597V320.84H37.0637V320.488L40.6957 312.36H42.4557L39.3517 319.32H42.3917L42.6797 316.36H44.0237V319.32H45.0477Z" fill="#7B7B7B"/>
<path d="M92.9174 312.36H96.5014V323H94.7894V313.912H92.9174V312.36ZM103.042 316.008C104.034 316.008 104.876 316.333 105.57 316.984C106.274 317.624 106.626 318.456 106.626 319.48C106.626 320.195 106.46 320.835 106.13 321.4C105.799 321.965 105.335 322.408 104.738 322.728C104.151 323.037 103.484 323.192 102.738 323.192C101.586 323.192 100.642 322.845 99.9058 322.152C99.1805 321.459 98.8178 320.568 98.8178 319.48C98.8178 318.499 99.2018 317.341 99.9698 316.008L102.098 312.296H103.986C102.759 314.472 102.023 315.789 101.778 316.248C102.194 316.088 102.615 316.008 103.042 316.008ZM102.722 321.56C103.351 321.56 103.868 321.368 104.274 320.984C104.679 320.589 104.882 320.088 104.882 319.48C104.882 318.861 104.679 318.36 104.274 317.976C103.868 317.581 103.351 317.384 102.722 317.384C102.316 317.384 101.948 317.475 101.618 317.656C101.287 317.837 101.026 318.088 100.834 318.408C100.652 318.717 100.562 319.075 100.562 319.48C100.562 320.088 100.764 320.589 101.17 320.984C101.586 321.368 102.103 321.56 102.722 321.56Z" fill="#7B7B7B"/>
<path d="M154.217 312.36H157.801V323H156.089V313.912H154.217V312.36ZM166.501 317.32C166.938 317.587 167.28 317.944 167.525 318.392C167.781 318.829 167.909 319.32 167.909 319.864C167.909 320.835 167.546 321.635 166.821 322.264C166.096 322.883 165.168 323.192 164.037 323.192C163.28 323.192 162.608 323.053 162.021 322.776C161.434 322.499 160.981 322.109 160.661 321.608C160.341 321.096 160.181 320.515 160.181 319.864C160.181 319.331 160.304 318.845 160.549 318.408C160.805 317.96 161.157 317.597 161.605 317.32C161.434 317.192 161.28 317.048 161.141 316.888C161.013 316.717 160.901 316.541 160.805 316.36C160.72 316.168 160.65 315.965 160.597 315.752C160.554 315.539 160.533 315.32 160.533 315.096C160.533 314.232 160.858 313.528 161.509 312.984C162.16 312.429 163.002 312.152 164.037 312.152C165.082 312.152 165.925 312.424 166.565 312.968C167.216 313.512 167.541 314.221 167.541 315.096C167.541 315.544 167.445 315.965 167.253 316.36C167.072 316.755 166.821 317.075 166.501 317.32ZM164.037 313.608C163.504 313.608 163.066 313.752 162.725 314.04C162.394 314.317 162.229 314.675 162.229 315.112C162.229 315.56 162.394 315.928 162.725 316.216C163.066 316.504 163.504 316.648 164.037 316.648C164.57 316.648 165.002 316.504 165.333 316.216C165.674 315.928 165.845 315.56 165.845 315.112C165.845 314.824 165.77 314.568 165.621 314.344C165.472 314.109 165.258 313.928 164.981 313.8C164.704 313.672 164.389 313.608 164.037 313.608ZM164.037 321.688C164.677 321.688 165.189 321.523 165.573 321.192C165.968 320.851 166.165 320.413 166.165 319.88C166.165 319.347 165.968 318.909 165.573 318.568C165.189 318.227 164.677 318.056 164.037 318.056C163.408 318.056 162.896 318.227 162.501 318.568C162.117 318.909 161.925 319.347 161.925 319.88C161.925 320.413 162.117 320.851 162.501 321.192C162.896 321.523 163.408 321.688 164.037 321.688Z" fill="#7B7B7B"/>
<path d="M219.174 321.368H223.142V323H215.862V322.536C217.451 320.797 218.598 319.501 219.302 318.648C220.016 317.784 220.491 317.128 220.726 316.68C220.96 316.232 221.078 315.789 221.078 315.352C221.078 315.043 221.008 314.771 220.87 314.536C220.742 314.301 220.555 314.12 220.31 313.992C220.075 313.853 219.798 313.784 219.478 313.784C218.976 313.784 218.571 313.933 218.262 314.232C217.963 314.52 217.814 314.899 217.814 315.368V315.608H216.086V315.368C216.086 314.408 216.395 313.635 217.014 313.048C217.632 312.451 218.448 312.152 219.462 312.152C220.454 312.152 221.259 312.451 221.878 313.048C222.507 313.645 222.822 314.413 222.822 315.352C222.822 315.843 222.731 316.317 222.55 316.776C222.379 317.235 222.027 317.827 221.494 318.552C220.971 319.267 220.198 320.205 219.174 321.368ZM229.048 323.192C227.758 323.192 226.734 322.696 225.976 321.704C225.219 320.712 224.84 319.368 224.84 317.672C224.84 315.976 225.214 314.637 225.96 313.656C226.718 312.664 227.747 312.168 229.048 312.168C230.339 312.168 231.358 312.664 232.104 313.656C232.862 314.637 233.24 315.976 233.24 317.672C233.24 319.368 232.862 320.712 232.104 321.704C231.347 322.696 230.328 323.192 229.048 323.192ZM229.048 321.56C229.816 321.56 230.414 321.219 230.84 320.536C231.278 319.853 231.496 318.899 231.496 317.672C231.496 316.861 231.395 316.168 231.192 315.592C231 315.005 230.718 314.563 230.344 314.264C229.982 313.955 229.55 313.8 229.048 313.8C228.536 313.8 228.094 313.955 227.72 314.264C227.347 314.563 227.064 315.005 226.872 315.592C226.68 316.168 226.584 316.861 226.584 317.672C226.584 318.899 226.798 319.853 227.224 320.536C227.662 321.219 228.27 321.56 229.048 321.56Z" fill="#7B7B7B"/>
<path d="M284.864 321.368H288.832V323H281.552V322.536C283.141 320.797 284.288 319.501 284.992 318.648C285.706 317.784 286.181 317.128 286.416 316.68C286.65 316.232 286.768 315.789 286.768 315.352C286.768 315.043 286.698 314.771 286.56 314.536C286.432 314.301 286.245 314.12 286 313.992C285.765 313.853 285.488 313.784 285.168 313.784C284.666 313.784 284.261 313.933 283.952 314.232C283.653 314.52 283.504 314.899 283.504 315.368V315.608H281.776V315.368C281.776 314.408 282.085 313.635 282.704 313.048C283.322 312.451 284.138 312.152 285.152 312.152C286.144 312.152 286.949 312.451 287.568 313.048C288.197 313.645 288.512 314.413 288.512 315.352C288.512 315.843 288.421 316.317 288.24 316.776C288.069 317.235 287.717 317.827 287.184 318.552C286.661 319.267 285.888 320.205 284.864 321.368ZM293.586 321.368H297.554V323H290.274V322.536C291.863 320.797 293.01 319.501 293.714 318.648C294.429 317.784 294.903 317.128 295.138 316.68C295.373 316.232 295.49 315.789 295.49 315.352C295.49 315.043 295.421 314.771 295.282 314.536C295.154 314.301 294.967 314.12 294.722 313.992C294.487 313.853 294.21 313.784 293.89 313.784C293.389 313.784 292.983 313.933 292.674 314.232C292.375 314.52 292.226 314.899 292.226 315.368V315.608H290.498V315.368C290.498 314.408 290.807 313.635 291.426 313.048C292.045 312.451 292.861 312.152 293.874 312.152C294.866 312.152 295.671 312.451 296.29 313.048C296.919 313.645 297.234 314.413 297.234 315.352C297.234 315.843 297.143 316.317 296.962 316.776C296.791 317.235 296.439 317.827 295.906 318.552C295.383 319.267 294.61 320.205 293.586 321.368Z" fill="#7B7B7B"/>
<path d="M349.225 321.368H353.193V323H345.913V322.536C347.502 320.797 348.649 319.501 349.353 318.648C350.068 317.784 350.542 317.128 350.777 316.68C351.012 316.232 351.129 315.789 351.129 315.352C351.129 315.043 351.06 314.771 350.921 314.536C350.793 314.301 350.606 314.12 350.361 313.992C350.126 313.853 349.849 313.784 349.529 313.784C349.028 313.784 348.622 313.933 348.313 314.232C348.014 314.52 347.865 314.899 347.865 315.368V315.608H346.137V315.368C346.137 314.408 346.446 313.635 347.065 313.048C347.684 312.451 348.5 312.152 349.513 312.152C350.505 312.152 351.31 312.451 351.929 313.048C352.558 313.645 352.873 314.413 352.873 315.352C352.873 315.843 352.782 316.317 352.601 316.776C352.43 317.235 352.078 317.827 351.545 318.552C351.022 319.267 350.249 320.205 349.225 321.368ZM362.364 319.32V320.84H361.34V323H359.676V320.84H354.38V320.488L358.012 312.36H359.772L356.668 319.32H359.708L359.996 316.36H361.34V319.32H362.364Z" fill="#7B7B7B"/>
<path d="M413.563 321.368H417.531V323H410.251V322.536C411.841 320.797 412.987 319.501 413.691 318.648C414.406 317.784 414.881 317.128 415.115 316.68C415.35 316.232 415.467 315.789 415.467 315.352C415.467 315.043 415.398 314.771 415.259 314.536C415.131 314.301 414.945 314.12 414.699 313.992C414.465 313.853 414.187 313.784 413.867 313.784C413.366 313.784 412.961 313.933 412.651 314.232C412.353 314.52 412.203 314.899 412.203 315.368V315.608H410.475V315.368C410.475 314.408 410.785 313.635 411.403 313.048C412.022 312.451 412.838 312.152 413.851 312.152C414.843 312.152 415.649 312.451 416.267 313.048C416.897 313.645 417.211 314.413 417.211 315.352C417.211 315.843 417.121 316.317 416.939 316.776C416.769 317.235 416.417 317.827 415.883 318.552C415.361 319.267 414.587 320.205 413.563 321.368ZM423.358 316.008C424.35 316.008 425.192 316.333 425.886 316.984C426.59 317.624 426.942 318.456 426.942 319.48C426.942 320.195 426.776 320.835 426.446 321.4C426.115 321.965 425.651 322.408 425.054 322.728C424.467 323.037 423.8 323.192 423.054 323.192C421.902 323.192 420.958 322.845 420.222 322.152C419.496 321.459 419.134 320.568 419.134 319.48C419.134 318.499 419.518 317.341 420.286 316.008L422.414 312.296H424.302C423.075 314.472 422.339 315.789 422.094 316.248C422.51 316.088 422.931 316.008 423.358 316.008ZM423.038 321.56C423.667 321.56 424.184 321.368 424.59 320.984C424.995 320.589 425.198 320.088 425.198 319.48C425.198 318.861 424.995 318.36 424.59 317.976C424.184 317.581 423.667 317.384 423.038 317.384C422.632 317.384 422.264 317.475 421.934 317.656C421.603 317.837 421.342 318.088 421.15 318.408C420.968 318.717 420.878 319.075 420.878 319.48C420.878 320.088 421.08 320.589 421.486 320.984C421.902 321.368 422.419 321.56 423.038 321.56Z" fill="#7B7B7B"/>
<path d="M478.362 321.368H482.33V323H475.05V322.536C476.64 320.797 477.786 319.501 478.49 318.648C479.205 317.784 479.68 317.128 479.914 316.68C480.149 316.232 480.266 315.789 480.266 315.352C480.266 315.043 480.197 314.771 480.058 314.536C479.93 314.301 479.744 314.12 479.498 313.992C479.264 313.853 478.986 313.784 478.666 313.784C478.165 313.784 477.76 313.933 477.45 314.232C477.152 314.52 477.002 314.899 477.002 315.368V315.608H475.274V315.368C475.274 314.408 475.584 313.635 476.202 313.048C476.821 312.451 477.637 312.152 478.65 312.152C479.642 312.152 480.448 312.451 481.066 313.048C481.696 313.645 482.01 314.413 482.01 315.352C482.01 315.843 481.92 316.317 481.738 316.776C481.568 317.235 481.216 317.827 480.682 318.552C480.16 319.267 479.386 320.205 478.362 321.368ZM490.317 317.32C490.754 317.587 491.095 317.944 491.341 318.392C491.597 318.829 491.725 319.32 491.725 319.864C491.725 320.835 491.362 321.635 490.637 322.264C489.911 322.883 488.983 323.192 487.853 323.192C487.095 323.192 486.423 323.053 485.837 322.776C485.25 322.499 484.797 322.109 484.477 321.608C484.157 321.096 483.997 320.515 483.997 319.864C483.997 319.331 484.119 318.845 484.365 318.408C484.621 317.96 484.973 317.597 485.421 317.32C485.25 317.192 485.095 317.048 484.957 316.888C484.829 316.717 484.717 316.541 484.621 316.36C484.535 316.168 484.466 315.965 484.413 315.752C484.37 315.539 484.349 315.32 484.349 315.096C484.349 314.232 484.674 313.528 485.325 312.984C485.975 312.429 486.818 312.152 487.853 312.152C488.898 312.152 489.741 312.424 490.381 312.968C491.031 313.512 491.357 314.221 491.357 315.096C491.357 315.544 491.261 315.965 491.069 316.36C490.887 316.755 490.637 317.075 490.317 317.32ZM487.853 313.608C487.319 313.608 486.882 313.752 486.541 314.04C486.21 314.317 486.045 314.675 486.045 315.112C486.045 315.56 486.21 315.928 486.541 316.216C486.882 316.504 487.319 316.648 487.853 316.648C488.386 316.648 488.818 316.504 489.149 316.216C489.49 315.928 489.661 315.56 489.661 315.112C489.661 314.824 489.586 314.568 489.437 314.344C489.287 314.109 489.074 313.928 488.797 313.8C488.519 313.672 488.205 313.608 487.853 313.608ZM487.853 321.688C488.493 321.688 489.005 321.523 489.389 321.192C489.783 320.851 489.981 320.413 489.981 319.88C489.981 319.347 489.783 318.909 489.389 318.568C489.005 318.227 488.493 318.056 487.853 318.056C487.223 318.056 486.711 318.227 486.317 318.568C485.933 318.909 485.741 319.347 485.741 319.88C485.741 320.413 485.933 320.851 486.317 321.192C486.711 321.523 487.223 321.688 487.853 321.688Z" fill="#7B7B7B"/>
<path d="M3.872 66.368H7.84V68H0.56V67.536C2.14933 65.7973 3.296 64.5013 4 63.648C4.71467 62.784 5.18933 62.128 5.424 61.68C5.65867 61.232 5.776 60.7893 5.776 60.352C5.776 60.0427 5.70667 59.7707 5.568 59.536C5.44 59.3013 5.25333 59.12 5.008 58.992C4.77333 58.8533 4.496 58.784 4.176 58.784C3.67467 58.784 3.26933 58.9333 2.96 59.232C2.66133 59.52 2.512 59.8987 2.512 60.368V60.608H0.784V60.368C0.784 59.408 1.09333 58.6347 1.712 58.048C2.33067 57.4507 3.14667 57.152 4.16 57.152C5.152 57.152 5.95733 57.4507 6.576 58.048C7.20533 58.6453 7.52 59.4133 7.52 60.352C7.52 60.8427 7.42933 61.3173 7.248 61.776C7.07733 62.2347 6.72533 62.8267 6.192 63.552C5.66933 64.2667 4.896 65.2053 3.872 66.368ZM12.8825 61.184C13.9705 61.184 14.8612 61.5147 15.5545 62.176C16.2585 62.8373 16.6105 63.664 16.6105 64.656C16.6105 65.6693 16.2638 66.512 15.5705 67.184C14.8772 67.856 14.0132 68.192 12.9785 68.192C11.9545 68.192 11.1012 67.872 10.4185 67.232C9.7465 66.592 9.3945 65.776 9.3625 64.784H11.0905C11.1118 65.3067 11.2985 65.7333 11.6505 66.064C12.0025 66.3947 12.4452 66.56 12.9785 66.56C13.5225 66.56 13.9705 66.3787 14.3225 66.016C14.6852 65.6533 14.8665 65.2 14.8665 64.656C14.8665 64.4747 14.8398 64.2987 14.7865 64.128C14.7438 63.9573 14.6798 63.8027 14.5945 63.664C14.5092 63.5147 14.4025 63.3813 14.2745 63.264C14.1572 63.1467 14.0238 63.0453 13.8745 62.96C13.7252 62.8747 13.5598 62.8107 13.3785 62.768C13.2078 62.7253 13.0212 62.704 12.8185 62.704H10.0025L9.7945 62.464L10.3705 57.36H15.8745V58.928H11.7625L11.5225 61.184H12.8825ZM22.4377 68.192C21.1471 68.192 20.1231 67.696 19.3657 66.704C18.6084 65.712 18.2297 64.368 18.2297 62.672C18.2297 60.976 18.6031 59.6373 19.3497 58.656C20.1071 57.664 21.1364 57.168 22.4377 57.168C23.7284 57.168 24.7471 57.664 25.4937 58.656C26.2511 59.6373 26.6298 60.976 26.6298 62.672C26.6298 64.368 26.2511 65.712 25.4937 66.704C24.7364 67.696 23.7177 68.192 22.4377 68.192ZM22.4377 66.56C23.2057 66.56 23.8031 66.2187 24.2298 65.536C24.6671 64.8533 24.8857 63.8987 24.8857 62.672C24.8857 61.8613 24.7844 61.168 24.5817 60.592C24.3897 60.0053 24.1071 59.5627 23.7337 59.264C23.3711 58.9547 22.9391 58.8 22.4377 58.8C21.9257 58.8 21.4831 58.9547 21.1097 59.264C20.7364 59.5627 20.4537 60.0053 20.2617 60.592C20.0697 61.168 19.9737 61.8613 19.9737 62.672C19.9737 63.8987 20.1871 64.8533 20.6137 65.536C21.0511 66.2187 21.6591 66.56 22.4377 66.56Z" fill="#7B7B7B"/>
<path d="M3.872 119.368H7.84V121H0.56V120.536C2.14933 118.797 3.296 117.501 4 116.648C4.71467 115.784 5.18933 115.128 5.424 114.68C5.65867 114.232 5.776 113.789 5.776 113.352C5.776 113.043 5.70667 112.771 5.568 112.536C5.44 112.301 5.25333 112.12 5.008 111.992C4.77333 111.853 4.496 111.784 4.176 111.784C3.67467 111.784 3.26933 111.933 2.96 112.232C2.66133 112.52 2.512 112.899 2.512 113.368V113.608H0.784V113.368C0.784 112.408 1.09333 111.635 1.712 111.048C2.33067 110.451 3.14667 110.152 4.16 110.152C5.152 110.152 5.95733 110.451 6.576 111.048C7.20533 111.645 7.52 112.413 7.52 113.352C7.52 113.843 7.42933 114.317 7.248 114.776C7.07733 115.235 6.72533 115.827 6.192 116.552C5.66933 117.267 4.896 118.205 3.872 119.368ZM13.7465 121.192C12.4558 121.192 11.4318 120.696 10.6745 119.704C9.91717 118.712 9.5385 117.368 9.5385 115.672C9.5385 113.976 9.91183 112.637 10.6585 111.656C11.4158 110.664 12.4452 110.168 13.7465 110.168C15.0372 110.168 16.0558 110.664 16.8025 111.656C17.5598 112.637 17.9385 113.976 17.9385 115.672C17.9385 117.368 17.5598 118.712 16.8025 119.704C16.0452 120.696 15.0265 121.192 13.7465 121.192ZM13.7465 119.56C14.5145 119.56 15.1118 119.219 15.5385 118.536C15.9758 117.853 16.1945 116.899 16.1945 115.672C16.1945 114.861 16.0932 114.168 15.8905 113.592C15.6985 113.005 15.4158 112.563 15.0425 112.264C14.6798 111.955 14.2478 111.8 13.7465 111.8C13.2345 111.8 12.7918 111.955 12.4185 112.264C12.0452 112.563 11.7625 113.005 11.5705 113.592C11.3785 114.168 11.2825 114.861 11.2825 115.672C11.2825 116.899 11.4958 117.853 11.9225 118.536C12.3598 119.219 12.9678 119.56 13.7465 119.56ZM23.9377 121.192C22.6471 121.192 21.6231 120.696 20.8657 119.704C20.1084 118.712 19.7297 117.368 19.7297 115.672C19.7297 113.976 20.1031 112.637 20.8497 111.656C21.6071 110.664 22.6364 110.168 23.9377 110.168C25.2284 110.168 26.2471 110.664 26.9937 111.656C27.7511 112.637 28.1298 113.976 28.1298 115.672C28.1298 117.368 27.7511 118.712 26.9937 119.704C26.2364 120.696 25.2177 121.192 23.9377 121.192ZM23.9377 119.56C24.7057 119.56 25.3031 119.219 25.7298 118.536C26.1671 117.853 26.3857 116.899 26.3857 115.672C26.3857 114.861 26.2844 114.168 26.0817 113.592C25.8897 113.005 25.6071 112.563 25.2337 112.264C24.8711 111.955 24.4391 111.8 23.9377 111.8C23.4257 111.8 22.9831 111.955 22.6097 112.264C22.2364 112.563 21.9537 113.005 21.7617 113.592C21.5697 114.168 21.4737 114.861 21.4737 115.672C21.4737 116.899 21.6871 117.853 22.1137 118.536C22.5511 119.219 23.1591 119.56 23.9377 119.56Z" fill="#7B7B7B"/>
<path d="M0.464 163.36H4.048V174H2.336V164.912H0.464V163.36ZM9.80438 167.184C10.8924 167.184 11.783 167.515 12.4764 168.176C13.1804 168.837 13.5324 169.664 13.5324 170.656C13.5324 171.669 13.1857 172.512 12.4924 173.184C11.799 173.856 10.935 174.192 9.90037 174.192C8.87637 174.192 8.02304 173.872 7.34037 173.232C6.66837 172.592 6.31637 171.776 6.28437 170.784H8.01237C8.03371 171.307 8.22037 171.733 8.57238 172.064C8.92437 172.395 9.36704 172.56 9.90037 172.56C10.4444 172.56 10.8924 172.379 11.2444 172.016C11.607 171.653 11.7884 171.2 11.7884 170.656C11.7884 170.475 11.7617 170.299 11.7084 170.128C11.6657 169.957 11.6017 169.803 11.5164 169.664C11.431 169.515 11.3244 169.381 11.1964 169.264C11.079 169.147 10.9457 169.045 10.7964 168.96C10.647 168.875 10.4817 168.811 10.3004 168.768C10.1297 168.725 9.94304 168.704 9.74038 168.704H6.92437L6.71637 168.464L7.29237 163.36H12.7964V164.928H8.68438L8.44438 167.184H9.80438ZM19.3596 174.192C18.069 174.192 17.045 173.696 16.2876 172.704C15.5303 171.712 15.1516 170.368 15.1516 168.672C15.1516 166.976 15.525 165.637 16.2716 164.656C17.029 163.664 18.0583 163.168 19.3596 163.168C20.6503 163.168 21.669 163.664 22.4156 164.656C23.173 165.637 23.5516 166.976 23.5516 168.672C23.5516 170.368 23.173 171.712 22.4156 172.704C21.6583 173.696 20.6396 174.192 19.3596 174.192ZM19.3596 172.56C20.1276 172.56 20.725 172.219 21.1516 171.536C21.589 170.853 21.8076 169.899 21.8076 168.672C21.8076 167.861 21.7063 167.168 21.5036 166.592C21.3116 166.005 21.029 165.563 20.6556 165.264C20.293 164.955 19.861 164.8 19.3596 164.8C18.8476 164.8 18.405 164.955 18.0316 165.264C17.6583 165.563 17.3756 166.005 17.1836 166.592C16.9916 167.168 16.8956 167.861 16.8956 168.672C16.8956 169.899 17.109 170.853 17.5356 171.536C17.973 172.219 18.581 172.56 19.3596 172.56Z" fill="#7B7B7B"/>
<path d="M0.464 217.36H4.048V228H2.336V218.912H0.464V217.36ZM10.6684 228.192C9.37771 228.192 8.35371 227.696 7.59637 226.704C6.83904 225.712 6.46037 224.368 6.46037 222.672C6.46037 220.976 6.83371 219.637 7.58037 218.656C8.33771 217.664 9.36704 217.168 10.6684 217.168C11.959 217.168 12.9777 217.664 13.7244 218.656C14.4817 219.637 14.8604 220.976 14.8604 222.672C14.8604 224.368 14.4817 225.712 13.7244 226.704C12.967 227.696 11.9484 228.192 10.6684 228.192ZM10.6684 226.56C11.4364 226.56 12.0337 226.219 12.4604 225.536C12.8977 224.853 13.1164 223.899 13.1164 222.672C13.1164 221.861 13.015 221.168 12.8124 220.592C12.6204 220.005 12.3377 219.563 11.9644 219.264C11.6017 218.955 11.1697 218.8 10.6684 218.8C10.1564 218.8 9.71371 218.955 9.34037 219.264C8.96704 219.563 8.68437 220.005 8.49237 220.592C8.30037 221.168 8.20438 221.861 8.20438 222.672C8.20438 223.899 8.41771 224.853 8.84437 225.536C9.28171 226.219 9.88971 226.56 10.6684 226.56ZM20.8596 228.192C19.569 228.192 18.545 227.696 17.7876 226.704C17.0303 225.712 16.6516 224.368 16.6516 222.672C16.6516 220.976 17.025 219.637 17.7716 218.656C18.529 217.664 19.5583 217.168 20.8596 217.168C22.1503 217.168 23.169 217.664 23.9156 218.656C24.673 219.637 25.0516 220.976 25.0516 222.672C25.0516 224.368 24.673 225.712 23.9156 226.704C23.1583 227.696 22.1396 228.192 20.8596 228.192ZM20.8596 226.56C21.6276 226.56 22.225 226.219 22.6516 225.536C23.089 224.853 23.3076 223.899 23.3076 222.672C23.3076 221.861 23.2063 221.168 23.0036 220.592C22.8116 220.005 22.529 219.563 22.1556 219.264C21.793 218.955 21.361 218.8 20.8596 218.8C20.3476 218.8 19.905 218.955 19.5316 219.264C19.1583 219.563 18.8756 220.005 18.6836 220.592C18.4916 221.168 18.3956 221.861 18.3956 222.672C18.3956 223.899 18.609 224.853 19.0356 225.536C19.473 226.219 20.081 226.56 20.8596 226.56Z" fill="#7B7B7B"/>
<path d="M5.024 282.192C3.73333 282.192 2.70933 281.696 1.952 280.704C1.19467 279.712 0.816 278.368 0.816 276.672C0.816 274.976 1.18933 273.637 1.936 272.656C2.69333 271.664 3.72267 271.168 5.024 271.168C6.31467 271.168 7.33333 271.664 8.08 272.656C8.83733 273.637 9.216 274.976 9.216 276.672C9.216 278.368 8.83733 279.712 8.08 280.704C7.32267 281.696 6.304 282.192 5.024 282.192ZM5.024 280.56C5.792 280.56 6.38933 280.219 6.816 279.536C7.25333 278.853 7.472 277.899 7.472 276.672C7.472 275.861 7.37067 275.168 7.168 274.592C6.976 274.005 6.69333 273.563 6.32 273.264C5.95733 272.955 5.52533 272.8 5.024 272.8C4.512 272.8 4.06933 272.955 3.696 273.264C3.32267 273.563 3.04 274.005 2.848 274.592C2.656 275.168 2.56 275.861 2.56 276.672C2.56 277.899 2.77333 278.853 3.2 279.536C3.63733 280.219 4.24533 280.56 5.024 280.56Z" fill="#7B7B7B"/>
<path d="M32 157C32 153.686 34.6863 151 38 151C41.3137 151 44 153.686 44 157V292H32V157Z" fill="#F8A65D"/>
<path d="M94 250C94 246.686 96.6863 244 100 244C103.314 244 106 246.686 106 250V292H94V250Z" fill="#F8A65D"/>
<path d="M157 227C157 223.686 159.686 221 163 221C166.314 221 169 223.686 169 227V292H157V227Z" fill="#F8A65D"/>
<path d="M220 99C220 95.6863 222.686 93 226 93C229.314 93 232 95.6863 232 99V292H220V99Z" fill="#F8A65D"/>
<path d="M284 200C284 196.686 286.686 194 290 194C293.314 194 296 196.686 296 200V292H284V200Z" fill="#F8A65D"/>
<path d="M349 42C349 38.6863 351.686 36 355 36C358.314 36 361 38.6863 361 42V292H349V42Z" fill="#F8A65D"/>
<path d="M413 173C413 169.686 415.686 167 419 167C422.314 167 425 169.686 425 173V292H413V173Z" fill="#F8A65D"/>
<path d="M477 115C477 111.686 479.686 109 483 109C486.314 109 489 111.686 489 115V292H477V115Z" fill="#F8A65D"/>
</svg>
