<svg width="147" height="161" viewBox="0 0 147 161" fill="none" xmlns="http://www.w3.org/2000/svg">
<mask id="mask0_49_213" style="mask-type:alpha" maskUnits="userSpaceOnUse" x="0" y="0" width="147" height="153">
<rect width="146.558" height="153" fill="white"/>
</mask>
<g mask="url(#mask0_49_213)">
<path d="M24.1209 160.21C12.0928 135.52 -2.45039 83.1779 55.2847 58.1591L115.972 72.9729L94.6497 86.1407" stroke="#F8A65D" stroke-width="9"/>
<mask id="path-3-inside-1_49_213" fill="white">
<ellipse cx="70.0468" cy="77.9122" rx="4.92061" ry="4.93793"/>
</mask>
<ellipse cx="70.0468" cy="77.9122" rx="4.92061" ry="4.93793" fill="#F8A65D"/>
<path d="M65.9674 77.9122C65.9674 75.6986 67.764 73.8501 70.0468 73.8501V91.8501C77.7648 91.8501 83.9674 85.58 83.9674 77.9122H65.9674ZM70.0468 73.8501C72.3296 73.8501 74.1262 75.6986 74.1262 77.9122H56.1262C56.1262 85.58 62.3289 91.8501 70.0468 91.8501V73.8501ZM74.1262 77.9122C74.1262 80.1257 72.3296 81.9742 70.0468 81.9742V63.9742C62.3289 63.9742 56.1262 70.2443 56.1262 77.9122H74.1262ZM70.0468 81.9742C67.764 81.9742 65.9674 80.1257 65.9674 77.9122H83.9674C83.9674 70.2443 77.7648 63.9742 70.0468 63.9742V81.9742Z" fill="#F8A65D" mask="url(#path-3-inside-1_49_213)"/>
<path d="M106.551 100.955C106.551 108.485 100.473 114.561 93.0085 114.561C85.5443 114.561 79.4663 108.485 79.4663 100.955C79.4663 93.4262 85.5443 87.3496 93.0085 87.3496C100.473 87.3496 106.551 93.4262 106.551 100.955Z" stroke="#F8A65D" stroke-width="9"/>
<path d="M138.934 158.564C138.934 145.396 130.733 117.414 102.85 112.477M55.2839 58.1593C47.0829 57.062 28.1036 51.5754 32.3211 31.8237C36.2575 13.3887 56.9242 15.3639 65.1252 21.9478C69.4991 15.3639 86.4478 2.1961 104.49 13.7179C127.521 28.4254 119.252 64.7432 88.088 66.3892" stroke="#F8A65D" stroke-width="9"/>
</g>
</svg>
